<svg width="1164" height="40" viewBox="0 0 1164 40" fill="none" xmlns="http://www.w3.org/2000/svg">
<path d="M8.71874 1.26627C9.76264 -0.422089 12.3724 -0.422089 13.4163 1.26627L21.7677 14.7731C22.8116 16.4615 21.5067 18.5719 19.4189 18.5719H2.71622C0.628393 18.5719 -0.676508 16.4615 0.367407 14.7731L8.71874 1.26627Z" fill="#0066FF"/>
<path d="M23.4363 38.7338C22.3924 40.4221 19.7827 40.4221 18.7388 38.7338L10.3874 25.2269C9.34351 23.5385 10.6484 21.4281 12.7362 21.4281H29.4389C31.5267 21.4281 32.8316 23.5385 31.7877 25.2269L23.4363 38.7338Z" fill="#99C2FF"/>
<path d="M50.4242 18.4594H46.6874V25.2128C46.6874 25.7943 46.828 26.2164 47.1093 26.4791C47.3907 26.7229 47.8025 26.8636 48.3449 26.9012C48.9074 26.9199 49.6005 26.9106 50.4242 26.873V29.6025C47.9331 29.8839 46.145 29.687 45.0601 29.0116C43.9753 28.3176 43.4328 27.0513 43.4328 25.2128V18.4594H40.6604V15.5329H43.4328V12.4938L46.6874 11.5934V15.5329H50.4242V18.4594ZM61.3017 15.1671C63.0293 15.1671 64.4257 15.683 65.4905 16.7147C66.5552 17.7465 67.0876 19.1629 67.0876 20.9638V29.6025H63.833V21.2733C63.833 20.2227 63.5317 19.4161 62.929 18.8533C62.3263 18.2905 61.5025 18.0091 60.4579 18.0091C59.3128 18.0091 58.3885 18.3468 57.6855 19.0222C56.9822 19.6788 56.6307 20.6918 56.6307 22.0612V29.6025H53.3761V9.90503H56.6307V17.3338C57.6151 15.8893 59.172 15.1671 61.3017 15.1671ZM73.1534 23.8621C73.3945 24.9314 73.947 25.7569 74.8109 26.3384C75.6748 26.9012 76.7296 27.1826 77.9751 27.1826C79.7029 27.1826 80.9987 26.6011 81.8625 25.4379L84.5445 26.9012C83.058 28.9459 80.8581 29.9683 77.9449 29.9683C75.494 29.9683 73.515 29.2743 72.0083 27.886C70.5015 26.4791 69.7481 24.7063 69.7481 22.5677C69.7481 20.4667 70.4916 18.7126 71.9781 17.3057C73.4649 15.88 75.3735 15.1671 77.7038 15.1671C79.9138 15.1671 81.7219 15.8893 83.1282 17.3338C84.5546 18.7783 85.2678 20.5323 85.2678 22.5959C85.2678 22.9148 85.2277 23.3369 85.1472 23.8621H73.1534ZM73.1233 21.3859H81.983C81.7621 20.2416 81.2499 19.3785 80.4461 18.797C79.6626 18.2155 78.7385 17.9247 77.6737 17.9247C76.4683 17.9247 75.4639 18.2343 74.6602 18.8533C73.8566 19.4724 73.3443 20.3166 73.1233 21.3859ZM96.66 15.1671C98.7292 15.1671 100.497 15.8893 101.964 17.3338C103.43 18.7595 104.164 20.5041 104.164 22.5677C104.164 24.65 103.43 26.4041 101.964 27.8298C100.497 29.2554 98.7292 29.9683 96.66 29.9683C94.3697 29.9683 92.6117 29.1804 91.3863 27.6046V35.2304H88.1317V15.5329H91.3863V17.5589C92.6117 15.9644 94.3697 15.1671 96.66 15.1671ZM92.7424 25.8037C93.6464 26.6479 94.7815 27.07 96.1477 27.07C97.5137 27.07 98.6489 26.6479 99.5529 25.8037C100.457 24.9408 100.909 23.8621 100.909 22.5677C100.909 21.2733 100.457 20.204 99.5529 19.3598C98.6489 18.4969 97.5137 18.0654 96.1477 18.0654C94.7815 18.0654 93.6464 18.4969 92.7424 19.3598C91.8383 20.204 91.3863 21.2733 91.3863 22.5677C91.3863 23.8621 91.8383 24.9408 92.7424 25.8037ZM109.675 23.8621C109.916 24.9314 110.468 25.7569 111.332 26.3384C112.196 26.9012 113.251 27.1826 114.496 27.1826C116.224 27.1826 117.52 26.6011 118.384 25.4379L121.066 26.9012C119.579 28.9459 117.379 29.9683 114.466 29.9683C112.015 29.9683 110.036 29.2743 108.53 27.886C107.023 26.4791 106.269 24.7063 106.269 22.5677C106.269 20.4667 107.013 18.7126 108.499 17.3057C109.986 15.88 111.895 15.1671 114.225 15.1671C116.435 15.1671 118.243 15.8893 119.65 17.3338C121.076 18.7783 121.789 20.5323 121.789 22.5959C121.789 22.9148 121.749 23.3369 121.669 23.8621H109.675ZM109.645 21.3859H118.504C118.284 20.2416 117.771 19.3785 116.967 18.797C116.184 18.2155 115.26 17.9247 114.195 17.9247C112.99 17.9247 111.985 18.2343 111.182 18.8533C110.378 19.4724 109.866 20.3166 109.645 21.3859ZM127.126 23.8621C127.367 24.9314 127.92 25.7569 128.784 26.3384C129.647 26.9012 130.702 27.1826 131.948 27.1826C133.676 27.1826 134.971 26.6011 135.835 25.4379L138.517 26.9012C137.031 28.9459 134.831 29.9683 131.918 29.9683C129.467 29.9683 127.488 29.2743 125.981 27.886C124.474 26.4791 123.721 24.7063 123.721 22.5677C123.721 20.4667 124.464 18.7126 125.951 17.3057C127.438 15.88 129.346 15.1671 131.677 15.1671C133.886 15.1671 135.695 15.8893 137.101 17.3338C138.527 18.7783 139.241 20.5323 139.241 22.5959C139.241 22.9148 139.2 23.3369 139.12 23.8621H127.126ZM127.096 21.3859H135.956C135.735 20.2416 135.223 19.3785 134.419 18.797C133.635 18.2155 132.711 17.9247 131.647 17.9247C130.441 17.9247 129.437 18.2343 128.633 18.8533C127.829 19.4724 127.317 20.3166 127.096 21.3859ZM145.359 17.8966C146.183 16.152 147.729 15.2796 150 15.2796V18.5719C148.754 18.4969 147.669 18.7783 146.745 19.4161C145.821 20.0352 145.359 21.0669 145.359 22.5114V29.6025H142.104V15.5329H145.359V17.8966Z" fill="white"/>
<path d="M406.317 14.6859C405.374 14.6859 404.504 15.4141 404.286 16.4337L401.82 24.7356L399.427 16.4337C399.209 15.4141 398.266 14.6131 397.178 14.6131H396.961C395.873 14.6131 394.93 15.2685 394.712 16.4337L392.319 24.59L389.998 16.3609C389.707 15.4141 388.91 14.6131 387.894 14.6131H387.822C386.734 14.6131 385.936 15.5598 385.936 16.725L386.081 17.8173L389.78 29.2507C390.07 30.4159 391.013 31.217 392.173 31.2898H392.319C393.406 31.2898 394.277 30.4887 394.64 29.3235L397.033 21.1672L399.427 29.3235C399.717 30.4887 400.66 31.2898 401.748 31.2898H401.965C403.126 31.2898 404.069 30.4887 404.359 29.2507L408.058 17.6717L408.275 16.7978V16.725C408.275 15.5598 407.405 14.6859 406.317 14.6859ZM416.979 14.6859C415.311 14.6131 413.715 14.9772 412.12 15.487C411.467 15.7783 411.104 16.4337 411.104 17.2347C411.104 18.3271 411.902 19.1282 412.917 19.0553C413.062 19.0553 413.28 19.0553 413.498 18.9097C414.441 18.6184 415.456 18.4728 416.471 18.4728C418.647 18.4728 419.735 19.4923 419.735 21.4585V21.677C418.575 21.2401 417.269 21.0944 416.036 21.0944C412.482 21.0944 410.016 22.7694 410.016 26.3378C410.016 29.4692 412.41 31.2898 415.166 31.2898C416.907 31.3626 418.575 30.5615 419.735 29.2507C419.808 30.4159 420.678 31.217 421.766 31.217C422.927 31.217 423.87 30.1974 423.87 28.9594V21.677C423.942 19.8564 423.362 17.963 422.201 16.5793C420.968 15.4141 419.3 14.6859 416.979 14.6859ZM419.808 25.2454C419.808 26.9932 418.357 28.0855 416.399 28.0127C415.021 28.0127 414.078 27.2845 414.078 26.0465V25.9736C414.078 24.59 415.238 23.7161 417.052 23.7161C417.922 23.7161 418.937 24.0074 419.808 24.3715V25.2454ZM438.593 14.6131C437.723 14.6131 436.853 15.1957 436.635 16.2152L433.299 25.6095L430.107 16.288C429.817 15.2685 429.019 14.6131 428.004 14.6131C426.916 14.6131 426.045 15.487 425.9 16.725C425.9 17.0891 426.045 17.4532 426.191 17.8173L430.833 29.2507C431.123 30.4159 432.066 31.217 433.226 31.2898H433.516C434.532 31.217 435.547 30.4887 435.982 29.3235L440.479 17.8902L440.697 16.7978V16.725C440.697 15.5598 439.826 14.6131 438.593 14.6131ZM449.836 14.5403C445.411 14.5403 442.365 18.3271 442.365 22.915V23.6433C442.51 28.0855 446.137 31.5083 450.271 31.2898C452.157 31.2898 453.97 30.6344 455.493 29.3235C455.928 28.9594 456.073 28.5225 456.073 28.0127V27.9399C456.073 26.9203 455.348 26.1193 454.405 26.1193C454.042 26.1193 453.68 26.1921 453.39 26.4834C452.544 27.2143 451.459 27.6036 450.343 27.5758C448.53 27.6486 446.934 26.3378 446.717 24.3715H455.203C456.291 24.2987 457.161 23.2791 457.089 22.114V21.7498C457.089 17.8173 453.825 14.3946 449.836 14.5403ZM446.572 21.677C446.934 19.5651 448.095 18.2543 449.836 18.2543C451.576 18.2543 452.737 19.6379 452.955 21.677H446.572Z" fill="white" stroke="white"/>
<path d="M272.184 17.0023C277.327 12.7946 287.83 -2.36795 271.387 0.316322C264.215 1.40454 253.712 8.36913 251.611 16.4219C250.525 14.2455 249.293 12.2142 247.99 10.1828C245.961 7.42601 243.716 9.60245 245.889 12.3593C252.331 20.1705 256.045 29.8776 256.465 40C256.972 35.1393 256.175 29.1904 254.219 23.3865C255.161 23.6767 256.247 23.8218 257.189 23.8218C260.521 29.3355 265.664 34.0511 271.387 36.2275C276.675 38.3314 283.701 37.0981 280.804 28.61C279.282 23.9669 275.733 19.9042 272.184 17.0023ZM272.908 2.27511C282.035 1.25944 272.256 12.6495 269.069 14.7533C266.099 12.7946 262.332 11.0534 258.71 11.5612C261.318 8.15149 267.692 2.92804 272.908 2.27511ZM258.638 14.0279C261.101 13.8102 263.781 15.1886 265.882 16.6396C263.853 17.6553 261.68 18.2356 259.435 18.4533C256.102 18.4533 255.378 14.3181 258.638 14.0279ZM271.242 31.7295C266.968 30.4962 262.912 27.0139 260.014 23.5316C262.405 23.0238 264.795 22.0807 266.968 20.7748C267.765 20.4121 268.562 19.8317 269.286 19.3239C271.821 21.6454 274.502 24.7649 275.516 28.3198C276.53 32.1648 273.777 32.455 271.242 31.7295Z" fill="#F5A623"/>
<path d="M307.231 9.71747H294.758C294.323 9.71747 293.96 10.0807 293.96 10.5167H293.887V30.1331C293.887 30.569 294.25 30.9323 294.685 30.9323C295.048 30.9323 295.41 30.569 295.483 30.1331V21.2694H306.07C306.505 21.2694 306.723 20.9061 306.723 20.5429C306.723 20.1069 306.433 19.889 306.07 19.889H295.41V11.2432H307.231C307.666 11.2432 307.883 10.8799 307.883 10.5167C307.883 10.2987 307.666 10.0081 307.231 9.71747ZM312.959 8.70032H312.887C312.524 8.70032 312.307 8.99093 312.307 9.3542V30.0605C312.307 30.4964 312.597 30.787 312.959 30.787C313.395 30.787 313.612 30.4237 313.612 30.0605V9.49951C313.612 8.99093 313.395 8.70032 312.959 8.70032ZM331.016 16.111C331.016 15.6751 330.726 15.3844 330.364 15.3844C329.928 15.3844 329.711 15.7477 329.711 16.111V24.7568C329.711 27.6629 327.463 29.9878 324.707 29.9152C321.807 29.9152 320.139 27.8809 320.139 24.6841V16.111C320.139 15.6751 319.849 15.3844 319.486 15.3844C319.196 15.3844 318.833 15.7477 318.833 16.111V24.9021C318.833 28.5347 321.009 31.2229 324.562 31.2229C326.738 31.2956 328.768 30.0605 329.783 28.0262V30.2784C329.783 30.7144 330.146 30.9323 330.436 30.9323C330.871 30.9323 331.089 30.569 331.089 30.2784H331.016V16.111ZM342.982 16.8375C343.272 16.8375 343.634 16.5469 343.634 16.1836C343.634 15.893 343.272 15.5298 342.982 15.5298H338.413V11.2432C338.413 10.8799 338.05 10.5167 337.76 10.5167H337.688C337.325 10.5167 337.108 10.8799 337.108 11.2432V15.5298H335.512C335.15 15.5298 334.86 15.7477 334.86 16.111C334.86 16.4743 335.15 16.8375 335.512 16.8375H337.108V26.8637C337.108 29.6972 338.921 31.0776 341.024 31.0776C341.749 31.0776 342.474 30.9323 343.127 30.7144C343.344 30.569 343.562 30.3511 343.562 30.0605C343.562 29.6972 343.272 29.4792 342.982 29.4792C342.474 29.6246 341.894 29.6972 341.314 29.6972C339.573 29.6972 338.413 28.898 338.413 26.7184V16.8375H342.982ZM354.222 16.8375C354.584 16.8375 354.874 16.5469 354.874 16.1836C354.874 15.893 354.584 15.5298 354.222 15.5298H349.653V11.2432C349.653 10.8799 349.363 10.5167 349 10.5167H348.928C348.565 10.5167 348.348 10.8799 348.348 11.2432V15.5298H346.752C346.462 15.5298 346.1 15.7477 346.1 16.111C346.1 16.4743 346.462 16.8375 346.752 16.8375H348.348V26.8637C348.348 29.6972 350.161 31.0776 352.336 31.0776C352.989 31.0776 353.714 30.9323 354.367 30.7144C354.657 30.569 354.802 30.3511 354.802 30.0605C354.802 29.6972 354.584 29.4792 354.222 29.4792C353.714 29.6246 353.134 29.6972 352.554 29.6972C350.813 29.6972 349.653 28.898 349.653 26.7184V16.8375H354.222ZM364.157 15.0938C360.313 15.0938 357.412 18.5812 357.412 23.1584V23.231C357.412 28.0988 360.603 31.2956 364.447 31.2956C366.477 31.3682 368.58 30.4964 369.958 28.8254C370.175 28.6801 370.248 28.4621 370.248 28.3168C370.248 27.9535 369.885 27.5903 369.595 27.5903L369.16 27.7356C368.585 28.4076 367.874 28.9494 367.073 29.3251C366.273 29.7009 365.403 29.902 364.519 29.9152C361.691 29.9152 359.153 27.6629 358.863 23.8849H370.175C370.466 23.8849 370.828 23.5217 370.828 23.1584C370.828 18.5812 368.217 15.0938 364.157 15.0938ZM358.79 22.4318C359.008 19.0898 361.256 16.4743 364.084 16.4743C367.347 16.4743 369.088 19.3077 369.233 22.4318H358.79ZM381.923 15.3118C379.313 15.5298 377.137 17.3461 376.194 19.9616V16.1836C376.194 15.893 375.832 15.5298 375.542 15.5298C375.107 15.5298 374.889 15.7477 374.817 16.1836V30.4237C374.817 30.787 375.107 31.1503 375.469 31.1503C375.832 31.1503 376.122 30.8597 376.194 30.4237V24.7568C376.194 19.7437 378.877 17.3461 381.923 16.9828H381.996C382.431 16.9828 382.648 16.5469 382.648 16.1836C382.648 15.6751 382.358 15.3118 381.923 15.3118Z" fill="white"/>
<path d="M568.187 0.26623C564.469 1.00515 561.057 2.77214 558.308 5.38647C556.512 7.09925 555.398 8.57709 554.338 10.6325C552.704 13.8058 552.093 16.3652 552.093 19.9889C552.093 23.6125 552.704 26.1727 554.338 29.3452C555.398 31.4007 556.512 32.8785 558.308 34.5913C562.062 38.1788 566.66 40 571.941 40C575.461 40 578.101 39.3869 581.011 37.9265C582.466 37.1875 584.424 35.9252 584.424 35.709C584.424 35.6367 583.328 34.4829 581.999 33.1489L579.574 30.7153L578.496 31.3103C576.485 32.4281 575.03 32.825 572.641 32.9146C570.827 32.9869 570.235 32.9508 568.959 32.6262C563.085 31.1477 559.098 26.0462 559.098 19.9889C559.098 12.7416 564.81 7.00889 572.03 7.00889C581.532 7.00889 587.729 16.7802 583.795 25.5415L583.292 26.6773L585.699 29.1109C587.01 30.4449 588.178 31.5265 588.285 31.5265C588.68 31.5265 590.297 28.4979 590.998 26.4243C591.68 24.4231 591.967 22.476 591.967 19.9882C591.967 16.3645 591.357 13.8044 589.722 10.6319C588.662 8.57642 587.549 7.09858 585.752 5.38581C582.968 2.71792 579.556 0.96901 575.748 0.248159C573.988 -0.0945288 569.893 -0.0764581 568.187 0.26623ZM639.564 18.8169V32.0673H644.413V5.56652H639.564V18.8169ZM714.535 5.83692C707.836 7.29736 703.057 13.8774 703.866 20.4755C704.279 23.7564 705.447 26.1184 707.799 28.4617C710.045 30.6791 712.002 31.7427 715.002 32.3558C718.289 33.0231 722.385 32.1577 725.115 30.2287L725.617 29.8679L726.605 30.7514C728.418 32.3196 728.204 32.3016 729.317 31.076C731.095 29.1109 731.077 29.2917 729.712 28.0474L728.526 26.9839L729.299 25.6138C732.351 20.2412 731.473 13.9316 727.036 9.53287C725.078 7.56777 722.904 6.3958 720.246 5.83692C718.757 5.51231 715.99 5.51231 714.535 5.83692ZM719.834 10.4157C723.426 11.5334 726.138 15.2829 726.138 19.1235C726.138 20.2231 725.706 21.954 725.186 22.9814L724.791 23.7384L723.012 22.1882L721.234 20.6381L720.445 21.5216C719.995 22.0263 719.402 22.7116 719.115 23.0898L718.594 23.739L720.319 25.2356L722.024 26.7315L721.216 27.1465C720.12 27.7054 718.539 28.1023 717.426 28.1023C712.81 28.1023 708.714 23.7752 708.714 18.926C708.714 17.8625 709.127 16.2039 709.703 15.0319C710.241 13.9323 711.696 12.2376 712.792 11.4806C714.769 10.1272 717.552 9.71291 719.834 10.4157ZM598.253 8.18019V10.4338H606.516V32.0673H611.545V10.4338H619.808V5.92661H598.253V8.18019ZM734.759 18.997V32.0673H752.901V27.7409H739.609V5.92728H734.759V18.997ZM692.011 9.71291V12.4169H689.137V16.3833H691.993L692.047 22.549L692.101 28.7328L692.586 29.6343C693.628 31.6175 695.191 32.5191 697.58 32.5191C698.962 32.5191 699.232 32.4649 700.328 31.9241C701.01 31.5814 701.603 31.2032 701.657 31.0586C701.711 30.9141 701.567 30.3733 701.351 29.8505C701.118 29.3459 700.831 28.6605 700.705 28.3359L700.472 27.777L699.789 28.1197C698.999 28.5347 698.28 28.5521 697.598 28.21C696.663 27.7054 696.61 27.3808 696.538 21.6481L696.484 16.384H700.992V12.4176H696.502V7.00956H692.011V9.71291ZM626.901 12.002C625.788 12.0923 624.117 12.3989 623.13 12.7228C622.357 12.9571 620.22 13.8225 620.004 13.9845C619.914 14.0387 621.441 17.4636 621.548 17.4636C621.585 17.4636 621.907 17.3197 622.285 17.1209C625.158 15.6604 628.679 15.625 630.295 17.0667C630.817 17.5352 631.481 19.086 631.481 19.8791C631.481 20.5103 631.445 20.5638 631.086 20.4561C628.517 19.7352 625.554 19.5364 623.758 19.9695C621.548 20.5103 619.663 21.9526 618.782 23.7551C618.351 24.6205 618.279 24.9813 618.279 26.2972C618.279 27.5769 618.351 27.9919 618.746 28.8211C619.681 30.7682 621.459 32.0305 623.865 32.4448C626.236 32.8598 628.571 32.3364 630.475 30.9663L631.481 30.2454V32.0666H636.151V25.4685C636.151 18.4555 636.079 17.6262 635.217 15.9496C634.714 14.9583 633.152 13.4437 632.092 12.9029C630.745 12.2362 628.608 11.8581 626.901 12.002ZM629.056 23.2337C629.757 23.3421 630.583 23.5041 630.906 23.6119C631.481 23.7919 631.481 23.81 631.481 24.9639C631.481 26.2978 631.229 26.9109 630.332 27.686C628.32 29.471 624.512 29.3988 623.273 27.5601C622.554 26.5147 622.769 24.982 623.758 24.1707C625.015 23.1434 626.506 22.8729 629.056 23.2337ZM655.819 12.0568C653.61 12.3092 651.617 13.265 650.072 14.8332C648.706 16.2032 647.916 17.5733 647.467 19.3758C645.94 25.3789 649.282 31.0399 655.137 32.3558C658.245 33.0411 662.465 32.0673 664.729 30.1203L665.465 29.4891L664.064 28.0829L662.681 26.6767L662.214 27.0013C661.478 27.524 660.023 28.2094 659.107 28.4617C658.011 28.7502 655.819 28.6244 654.993 28.2094C653.521 27.5066 652.245 25.9016 651.85 24.2611L651.742 23.7745H666.866L666.794 23.0898C666.74 22.729 666.651 21.8636 666.597 21.197C666.309 17.7714 664.244 14.2743 661.729 12.9939C660.148 12.1827 657.867 11.8219 655.819 12.0568ZM658.801 16.1129C660.328 16.6537 661.387 17.8618 661.945 19.7185L662.179 20.5297H656.988C654.114 20.5297 651.779 20.4935 651.779 20.4574C651.779 20.1328 652.408 18.7446 652.839 18.1315C654.113 16.2568 656.718 15.374 658.801 16.1129ZM678.684 12.0743C677.373 12.2724 675.936 12.9397 674.876 13.8774L674.05 14.6163V12.4169H669.201V32.068H674.032L674.087 25.6319C674.141 19.3403 674.159 19.1596 674.536 18.4207C675.29 17.0325 676.871 16.149 678.631 16.149C680.247 16.131 681.433 16.8525 682.187 18.2761C682.564 18.9796 682.582 19.2319 682.636 25.5234L682.691 32.068H687.343V25.1627C687.343 20.007 687.272 18.0418 687.092 17.3745C686.102 13.5889 682.725 11.4792 678.684 12.0743Z" fill="white"/>
<path d="M992.844 10.3776C993.172 10.3799 993.494 10.4644 993.781 10.6233C994.081 10.7843 994.329 11.029 994.493 11.3277C994.659 11.6192 994.746 11.9485 994.747 12.2839C994.747 12.6161 994.66 12.9424 994.496 13.2311C994.333 13.5289 994.089 13.7739 993.791 13.937C993.502 14.101 993.176 14.1872 992.843 14.1872C992.511 14.1872 992.184 14.101 991.895 13.937C991.598 13.7735 991.353 13.5287 991.19 13.2311C991.023 12.9415 990.936 12.6134 990.936 12.2794C990.936 11.9455 991.023 11.6173 991.19 11.3277C991.354 11.0286 991.602 10.7838 991.903 10.6233C992.191 10.4633 992.515 10.3788 992.844 10.3776ZM992.844 10.6933C992.572 10.6955 992.305 10.7662 992.067 10.8988C991.816 11.0333 991.609 11.2376 991.471 11.4871C991.332 11.7283 991.259 12.0018 991.259 12.2802C991.259 12.5586 991.332 12.8321 991.471 13.0732C991.609 13.3222 991.816 13.5264 992.067 13.6615C992.307 13.8 992.579 13.873 992.857 13.873C993.134 13.873 993.407 13.8 993.647 13.6615C993.898 13.5272 994.105 13.3229 994.243 13.0732C994.38 12.8327 994.452 12.5607 994.453 12.2839C994.451 12.0044 994.378 11.7299 994.24 11.4871C994.102 11.2376 993.895 11.0333 993.644 10.8988C993.399 10.7632 993.124 10.6924 992.844 10.6933ZM992.009 13.3413V11.286H992.712C992.888 11.2779 993.064 11.2975 993.234 11.3441C993.34 11.3792 993.431 11.449 993.492 11.5422C993.554 11.6293 993.588 11.7332 993.589 11.8401C993.59 11.9128 993.576 11.9849 993.548 12.0522C993.52 12.1195 993.48 12.1805 993.428 12.2318C993.315 12.3461 993.163 12.4132 993.002 12.4194C993.067 12.4437 993.126 12.4807 993.176 12.5281C993.29 12.6521 993.39 12.7884 993.474 12.9347L993.724 13.3353H993.319L993.138 13.0122C993.052 12.8337 992.935 12.6723 992.792 12.5356C992.714 12.4829 992.621 12.4578 992.527 12.4641H992.333V13.3413H992.009ZM992.339 12.1871H992.74C992.877 12.2007 993.014 12.171 993.133 12.1022C993.167 12.0748 993.194 12.04 993.212 12.0005C993.23 11.961 993.239 11.9178 993.237 11.8743C993.238 11.8162 993.221 11.7592 993.187 11.712C993.152 11.6629 993.103 11.6256 993.047 11.6048C992.939 11.5748 992.826 11.5627 992.715 11.569H992.339V12.1871Z" fill="white"/>
<path d="M871.252 11.4379C874.411 11.4379 876.971 8.87746 876.971 5.71897C876.971 2.56047 874.411 0 871.252 0C868.094 0 865.533 2.56047 865.533 5.71897C865.533 8.87746 868.094 11.4379 871.252 11.4379Z" fill="#F16522"/>
<path d="M879.353 36.5984C882.511 36.5984 885.071 34.038 885.071 30.8795C885.071 27.721 882.511 25.1605 879.353 25.1605C876.194 25.1605 873.634 27.721 873.634 30.8795C873.634 34.038 876.194 36.5984 879.353 36.5984Z" fill="#F16522"/>
<path d="M853.62 31.2621C856.779 31.2621 859.339 28.7017 859.339 25.5432C859.339 22.3847 856.779 19.8242 853.62 19.8242C850.462 19.8242 847.901 22.3847 847.901 25.5432C847.901 28.7017 850.462 31.2621 853.62 31.2621Z" fill="#F16522"/>
<path d="M854.383 17.7273C856.436 17.7273 858.1 16.063 858.1 14.0099C858.1 11.9569 856.436 10.2926 854.383 10.2926C852.33 10.2926 850.665 11.9569 850.665 14.0099C850.665 16.063 852.33 17.7273 854.383 17.7273Z" fill="#F6921E"/>
<path d="M880.973 16.2037C883.026 16.2037 884.69 14.5394 884.69 12.4864C884.69 10.4334 883.026 8.76904 880.973 8.76904C878.92 8.76904 877.255 10.4334 877.255 12.4864C877.255 14.5394 878.92 16.2037 880.973 16.2037Z" fill="#F6921E"/>
<path d="M868.774 39.4578C870.827 39.4578 872.491 37.7935 872.491 35.7405C872.491 33.6875 870.827 32.0232 868.774 32.0232C866.721 32.0232 865.057 33.6875 865.057 35.7405C865.057 37.7935 866.721 39.4578 868.774 39.4578Z" fill="#F6921E"/>
<path d="M860.005 36.2171C861.426 36.2171 862.578 35.0649 862.578 33.6436C862.578 32.2223 861.426 31.0701 860.005 31.0701C858.583 31.0701 857.431 32.2223 857.431 33.6436C857.431 35.0649 858.583 36.2171 860.005 36.2171Z" fill="#FFC10E"/>
<path d="M883.451 23.4463C884.872 23.4463 886.025 22.2941 886.025 20.8727C886.025 19.4514 884.872 18.2992 883.451 18.2992C882.03 18.2992 880.878 19.4514 880.878 20.8727C880.878 22.2941 882.03 23.4463 883.451 23.4463Z" fill="#FFC10E"/>
<path d="M860.577 10.1035C861.998 10.1035 863.15 8.95128 863.15 7.52996C863.15 6.10863 861.998 4.95642 860.577 4.95642C859.155 4.95642 858.003 6.10863 858.003 7.52996C858.003 8.95128 859.155 10.1035 860.577 10.1035Z" fill="#FFC10E"/>
<path d="M903.82 40V11.0894H906.911V14.7427C907.644 13.3407 908.612 12.2645 909.815 11.5138C911.021 10.7627 912.416 10.372 913.836 10.3879C916.573 10.3879 918.772 11.3441 920.432 13.2563C922.092 15.1686 922.922 17.7039 922.921 20.8623C922.921 24.0772 922.109 26.6304 920.484 28.5218C918.86 30.4132 916.687 31.3599 913.964 31.3619C912.4 31.3619 911.038 30.9971 909.877 30.2673C908.717 29.5375 907.77 28.4503 907.036 27.0057V40H903.82ZM906.948 20.8563C906.948 23.0406 907.536 24.7901 908.711 26.1047C909.887 27.4192 911.444 28.0795 913.383 28.0854C915.276 28.0854 916.765 27.4833 917.851 26.2789C918.937 25.0745 919.48 23.403 919.479 21.2644C919.479 18.8706 918.936 16.994 917.851 15.6348C916.766 14.2755 915.255 13.5954 913.319 13.5944C911.341 13.5944 909.786 14.2398 908.652 15.5305C907.518 16.8213 906.951 18.5985 906.952 20.8623L906.948 20.8563Z" fill="white"/>
<path d="M943.87 11.0895V30.5295H940.717V27.0028C939.956 28.4186 938.985 29.4989 937.802 30.2435C936.614 30.9892 935.237 31.3774 933.835 31.362C931.11 31.362 928.915 30.4024 927.249 28.4832C925.583 26.5639 924.75 24.0237 924.75 20.8623C924.75 17.6613 925.559 15.1151 927.177 13.2236C928.796 11.3322 930.96 10.389 933.669 10.3939C935.258 10.3939 936.637 10.7588 937.807 11.4886C938.976 12.2184 939.919 13.3051 940.636 14.7487V11.0895H943.87ZM940.717 20.9904C940.717 18.7952 940.132 17.0278 938.964 15.6885C937.795 14.3491 936.271 13.6799 934.39 13.6809C932.441 13.6809 930.92 14.2969 929.827 15.5291C928.734 16.7613 928.188 18.4824 928.189 20.6926C928.189 23.0437 928.738 24.8567 929.837 26.1315C930.936 27.4064 932.496 28.0438 934.515 28.0438C936.451 28.0438 937.969 27.4243 939.068 26.1851C940.167 24.946 940.717 23.2145 940.717 20.9904Z" fill="white"/>
<path d="M966.121 11.0894V30.1898C966.121 32.2997 965.983 33.8014 965.707 34.695C965.431 35.5848 964.964 36.4036 964.339 37.0943C963.449 38.0755 962.335 38.8267 961.092 39.2836C959.813 39.7612 958.344 39.9999 956.685 39.9999C953.806 39.9999 951.562 39.3273 949.953 37.9819C948.345 36.6366 947.505 34.7313 947.434 32.2659H951.084V32.5206C951.084 33.9801 951.575 35.1066 952.557 35.8999C953.539 36.6932 954.929 37.0903 956.727 37.0913C958.027 37.0913 959.137 36.8754 960.057 36.4435C960.944 36.0406 961.68 35.3676 962.161 34.5208C962.464 34.0047 962.674 33.4397 962.782 32.8512C962.908 32.2138 962.97 31.3004 962.969 30.1109V26.8344C962.236 28.2244 961.275 29.2903 960.087 30.032C958.886 30.7784 957.497 31.1655 956.083 31.1475C953.358 31.1475 951.163 30.1983 949.498 28.2999C947.833 26.4015 947 23.8801 946.999 20.7357C946.999 17.5585 947.807 15.041 949.425 13.1834C951.042 11.3257 953.206 10.3944 955.917 10.3894C957.493 10.3894 958.876 10.7543 960.066 11.4841C961.255 12.2138 962.196 13.2866 962.887 14.7025V11.0894H966.121ZM962.969 20.8623C962.969 18.6779 962.388 16.9215 961.228 15.5931C960.067 14.2646 958.539 13.5989 956.643 13.5959C954.693 13.5959 953.172 14.212 952.08 15.4441C950.988 16.6763 950.442 18.3974 950.442 20.6076C950.442 22.9597 950.992 24.7727 952.091 26.0466C953.19 27.3204 954.75 27.9579 956.77 27.9588C958.706 27.9588 960.224 27.3323 961.323 26.0793C962.422 24.8263 962.971 23.0873 962.969 20.8623Z" fill="white"/>
<path d="M988.457 11.0895V30.5295H985.304V27.0028C984.544 28.4196 983.572 29.4999 982.386 30.2435C981.198 30.9892 979.821 31.3774 978.419 31.362C975.693 31.362 973.498 30.4024 971.833 28.4832C970.168 26.5639 969.335 24.0237 969.334 20.8623C969.334 17.6613 970.143 15.1151 971.76 13.2236C973.377 11.3322 975.541 10.389 978.252 10.3939C979.84 10.3939 981.22 10.7588 982.391 11.4886C983.561 12.2184 984.505 13.3051 985.22 14.7487V11.0895H988.457ZM985.304 20.9904C985.304 18.7952 984.72 17.0278 983.552 15.6885C982.385 14.3491 980.86 13.6799 978.979 13.6809C977.029 13.6809 975.508 14.2969 974.415 15.5291C973.323 16.7613 972.777 18.4824 972.777 20.6926C972.777 23.0437 973.327 24.8567 974.426 26.1315C975.525 27.4064 977.086 28.0438 979.11 28.0438C981.046 28.0438 982.563 27.4243 983.663 26.1851C984.762 24.946 985.309 23.2145 985.304 20.9904Z" fill="white"/>
<path d="M1101.16 0H1095.12L1089.75 16.7344H1092.98L1094.47 12.1378H1101.9L1103.46 16.7344H1106.7L1101.16 0ZM1095.33 9.48044L1098.14 0.837918L1101.02 9.48044H1095.33ZM1111.13 16.7584V0H1108.16V16.7584H1111.13ZM1117.68 4.40505V0H1114.71V4.40505H1112.91V6.72728H1113.2C1113.2 6.72728 1114.71 6.72729 1114.71 8.37918V13.7179C1114.71 15.4177 1116.08 16.7584 1117.76 16.7584H1119.79V14.1249H1118.62C1118.12 14.1249 1117.68 13.694 1117.68 13.1912V8.59465C1117.68 6.82305 1113.92 6.72728 1113.3 6.72728H1119.79V4.40505H1117.68ZM1099.19 29.7993C1099.19 29.7993 1095.98 29.0572 1095.89 29.0332C1094.81 28.746 1093.9 28.2193 1093.9 27.118C1093.9 25.921 1095.36 24.9394 1097.2 24.9394C1099.46 24.9394 1100.73 26.328 1100.73 27.6926H1103.87C1103.87 24.7718 1101.59 22.306 1097.2 22.306C1093.49 22.306 1090.75 24.293 1090.75 27.1419C1090.75 30.0866 1092.62 31.4991 1095.36 32.1216C1095.36 32.1216 1098.6 32.8637 1098.67 32.8877C1099.91 33.1989 1100.95 33.8214 1100.95 35.0423C1100.95 36.5506 1099.07 37.5082 1097.11 37.3406C1094.45 37.1251 1093.46 35.3775 1093.46 34.1326H1090.35C1090.35 36.8618 1092.62 39.8783 1097.16 39.998C1100.56 40.0698 1104.09 38.2025 1104.09 35.0423C1104.09 32.1216 1102.07 30.4936 1099.19 29.7993ZM1111.73 37.197C1109.83 37.197 1108.83 35.4014 1108.83 33.3425C1108.83 31.2597 1110.07 29.4881 1111.7 29.4881C1113 29.4881 1114.03 30.4457 1114.39 31.7625H1117.6C1117.07 28.6741 1114.6 26.8547 1111.68 26.8547C1108.39 26.8547 1105.54 29.7275 1105.71 33.7256C1105.85 37.4603 1108.54 39.8065 1111.75 39.8065C1114.75 39.8065 1116.98 37.8194 1117.55 35.1141H1114.24C1113.98 36.1915 1113.02 37.197 1111.73 37.197ZM1122.6 32.2652V32.337V32.2652ZM1126.01 26.9025C1124.19 27.0462 1122.63 28.9375 1122.6 32.2652C1122.63 30.6133 1123.37 29.4163 1125.07 29.4163C1126.94 29.4163 1127.54 30.8048 1127.54 32.337V39.5431H1130.54V31.3315C1130.54 28.4587 1128.17 26.735 1126.01 26.9025ZM1119.63 22.7848V39.5431H1122.6V22.7848H1119.63ZM1138.61 26.8547C1135.42 26.8547 1132.5 29.2248 1132.5 33.3425C1132.5 37.4603 1135.37 39.7825 1138.61 39.8065C1141.87 39.7825 1144.75 37.4364 1144.75 33.3425C1144.75 29.2248 1141.8 26.8547 1138.61 26.8547ZM1138.61 37.173C1137.03 37.173 1135.49 35.9281 1135.49 33.3425C1135.49 30.9006 1137 29.5121 1138.61 29.4881C1140.24 29.5121 1141.75 30.9245 1141.75 33.3425C1141.75 35.9281 1140.22 37.173 1138.61 37.173ZM1152.43 26.8547C1149.24 26.8547 1146.31 29.2248 1146.31 33.3425C1146.31 37.4603 1149.19 39.7825 1152.43 39.8065C1155.69 39.7825 1158.56 37.4364 1158.56 33.3425C1158.56 29.2248 1155.61 26.8547 1152.43 26.8547ZM1152.43 37.173C1150.84 37.173 1149.31 35.9281 1149.31 33.3425C1149.31 30.9006 1150.82 29.5121 1152.43 29.4881C1154.06 29.5121 1155.57 30.9245 1155.57 33.3425C1155.57 35.9281 1154.03 37.173 1152.43 37.173ZM1163.65 39.5431V22.7848H1160.68V39.5431H1163.65ZM1163.69 13.1021H1123.01V16.7344H1163.69V13.1021Z" fill="white"/>
</svg>
